<?xml version="1.0" encoding="UTF-8" standalone="no"?>
<svg
   xmlns:dc="http://purl.org/dc/elements/1.1/"
   xmlns:cc="http://creativecommons.org/ns#"
   xmlns:rdf="http://www.w3.org/1999/02/22-rdf-syntax-ns#"
   xmlns:svg="http://www.w3.org/2000/svg"
   xmlns="http://www.w3.org/2000/svg"
   id="svg8"
   version="1.1"
   viewBox="0 0 68.512825 20.517584"
   height="20.517584mm"
   width="68.512825mm">
  <defs
     id="defs2" />
  <metadata
     id="metadata5">
    <rdf:RDF>
      <cc:Work
         rdf:about="">
        <dc:format>image/svg+xml</dc:format>
        <dc:type
           rdf:resource="http://purl.org/dc/dcmitype/StillImage" />
        <dc:title></dc:title>
      </cc:Work>
    </rdf:RDF>
  </metadata>
  <g
     transform="translate(-38.648064,-110.0595)"
     id="layer1">
    <g
       id="g906">
      <g
         aria-label="ms2view"
         style="font-style:normal;font-weight:normal;font-size:10.58333302px;line-height:1.25;font-family:sans-serif;letter-spacing:0px;word-spacing:0px;fill:#000000;fill-opacity:1;stroke:none;stroke-width:0.26458332"
         id="text875"
         transform="translate(-0.28348214,-0.01603874)">
        <path
           d="m 71.473024,124.34499 c 0.642055,0 1.121833,0.16581 1.439333,0.49742 0.3175,0.32455 0.47625,0.85372 0.47625,1.5875 v 3.69358 h -0.92075 v -3.65125 c 0,-0.89605 -0.384528,-1.34408 -1.153583,-1.34408 -0.550333,0 -0.945444,0.15875 -1.185333,0.47625 -0.232833,0.3175 -0.34925,0.77964 -0.34925,1.38641 v 3.13267 h -0.92075 v -3.65125 c 0,-0.89605 -0.388056,-1.34408 -1.164167,-1.34408 -0.5715,0 -0.966611,0.17639 -1.185333,0.52916 -0.218722,0.35278 -0.328083,0.86078 -0.328083,1.524 v 2.94217 l -0.179917,-5.67267 0.137583,0.77259 h 0.05292 c 0.176389,-0.29633 0.41275,-0.51506 0.709083,-0.65617 0.303389,-0.14817 0.624417,-0.22225 0.963084,-0.22225 0.889,0 1.467555,0.3175 1.735666,0.9525 h 0.05292 c 0.1905,-0.32455 0.448028,-0.56444 0.772583,-0.71967 0.331611,-0.15522 0.680861,-0.23283 1.04775,-0.23283 z"
           style="font-style:normal;font-variant:normal;font-weight:normal;font-stretch:normal;font-family:'Noto Sans';-inkscape-font-specification:'Noto Sans';stroke-width:0.26458332"
           id="path877" />
        <path
           d="m 78.844812,128.55716 q 0,0.8255 -0.613834,1.24883 -0.613833,0.42333 -1.651,0.42333 -0.592666,0 -1.026583,-0.0952 -0.423333,-0.0953 -0.751417,-0.26458 v -0.84667 q 0.338667,0.16934 0.814917,0.3175 0.486833,0.13759 0.98425,0.13759 0.709083,0 1.026583,-0.22225 0.3175,-0.23284 0.3175,-0.61384 0,-0.21166 -0.116416,-0.381 -0.116417,-0.16933 -0.423334,-0.33866 -0.296333,-0.16934 -0.85725,-0.381 -0.550333,-0.21167 -0.941916,-0.42334 -0.391584,-0.21166 -0.60325,-0.508 -0.211667,-0.29633 -0.211667,-0.762 0,-0.71966 0.582083,-1.11125 0.592667,-0.39158 1.545167,-0.39158 0.518583,0 0.963083,0.10583 0.455084,0.0953 0.846667,0.27517 l -0.3175,0.74083 q -0.359833,-0.14816 -0.751417,-0.254 -0.391583,-0.10583 -0.804333,-0.10583 -0.5715,0 -0.878417,0.1905 -0.296333,0.17992 -0.296333,0.49742 0,0.23283 0.137583,0.40216 0.137584,0.15875 0.455084,0.3175 0.328083,0.14817 0.867833,0.35984 0.53975,0.20108 0.92075,0.41275 0.381,0.21166 0.582083,0.51858 0.201084,0.29633 0.201084,0.75142 z"
           style="font-style:normal;font-variant:normal;font-weight:normal;font-stretch:normal;font-family:'Noto Sans';-inkscape-font-specification:'Noto Sans';stroke-width:0.26458332"
           id="path879" />
        <path
           d="m 84.819268,130.12349 h -4.995333 v -0.77258 l 1.979083,-2.00025 q 0.5715,-0.5715 0.963084,-1.016 0.391583,-0.4445 0.592666,-0.86784 0.201084,-0.43391 0.201084,-0.94191 0,-0.62442 -0.370417,-0.94192 -0.370417,-0.32808 -0.963083,-0.32808 -0.550334,0 -0.973667,0.1905 -0.41275,0.1905 -0.846667,0.52916 l -0.497416,-0.62441 q 0.4445,-0.37042 1.016,-0.62442 0.582083,-0.26458 1.30175,-0.26458 1.058333,0 1.672166,0.53975 0.613834,0.52916 0.613834,1.47108 0,0.59267 -0.243417,1.11125 -0.243417,0.51858 -0.677333,1.02658 -0.433917,0.49742 -1.016,1.06892 l -1.576917,1.55575 v 0.0423 h 3.820583 z"
           style="font-style:normal;font-variant:normal;font-weight:normal;font-stretch:normal;font-family:'Noto Sans';-inkscape-font-specification:'Noto Sans';stroke-width:0.26458332"
           id="path881" />
        <path
           d="m 87.52083,130.12349 -2.148416,-5.67267 h 0.994833 l 1.2065,3.34434 q 0.08467,0.23283 0.179917,0.51858 0.09525,0.28575 0.169333,0.55033 0.07408,0.254 0.105833,0.43392 h 0.04233 q 0.04233,-0.17992 0.116416,-0.4445 0.08467,-0.26458 0.179917,-0.55033 0.105833,-0.28575 0.179917,-0.508 l 1.2065,-3.34434 h 0.994833 l -2.159,5.67267 z"
           style="font-style:normal;font-variant:normal;font-weight:normal;font-stretch:normal;font-family:'Noto Sans';-inkscape-font-specification:'Noto Sans';stroke-width:0.26458332"
           id="path883" />
        <path
           d="m 92.122595,122.32357 q 0.211666,0 0.370416,0.14817 0.169334,0.13758 0.169334,0.4445 0,0.29633 -0.169334,0.4445 -0.15875,0.14817 -0.370416,0.14817 -0.232834,0 -0.391584,-0.14817 -0.15875,-0.14817 -0.15875,-0.4445 0,-0.30692 0.15875,-0.4445 0.15875,-0.14817 0.391584,-0.14817 z m 0.455083,2.12725 v 5.67267 h -0.931333 v -5.67267 z"
           style="font-style:normal;font-variant:normal;font-weight:normal;font-stretch:normal;font-family:'Noto Sans';-inkscape-font-specification:'Noto Sans';stroke-width:0.26458332"
           id="path885" />
        <path
           d="m 96.56561,124.34499 q 0.73025,0 1.248833,0.3175 0.529167,0.3175 0.804334,0.89958 0.28575,0.5715 0.28575,1.34409 v 0.56091 h -3.884083 q 0.02117,0.96309 0.486833,1.47109 0.47625,0.49741 1.322917,0.49741 0.539749,0 0.952499,-0.0953 0.423334,-0.10583 0.867834,-0.29633 v 0.81492 q -0.433917,0.1905 -0.85725,0.27516 -0.423334,0.0952 -1.005417,0.0952 -0.804333,0 -1.42875,-0.32808 -0.613833,-0.32808 -0.963083,-0.97367 -0.338667,-0.65616 -0.338667,-1.59808 0,-0.93133 0.306917,-1.59808 0.3175,-0.66675 0.878417,-1.02659 0.5715,-0.35983 1.322916,-0.35983 z m -0.01058,0.762 q -0.66675,0 -1.058333,0.43392 -0.381,0.42333 -0.455084,1.18533 h 2.88925 q -0.01058,-0.71967 -0.338667,-1.16417 -0.328083,-0.45508 -1.037166,-0.45508 z"
           style="font-style:normal;font-variant:normal;font-weight:normal;font-stretch:normal;font-family:'Noto Sans';-inkscape-font-specification:'Noto Sans';stroke-width:0.26458332"
           id="path887" />
        <path
           d="m 104.77745,130.11291 -0.97367,-3.19617 q -0.13758,-0.43392 -0.24341,-0.84667 -0.0953,-0.42333 -0.14817,-0.65616 h -0.0423 q -0.0423,0.23283 -0.13759,0.65616 -0.0953,0.41275 -0.24341,0.85725 l -1.016,3.18559 h -1.05834 l -1.555747,-5.67267 h 0.963087 l 0.78316,3.02683 q 0.11642,0.45509 0.22225,0.92075 0.10584,0.46567 0.14817,0.77259 h 0.0423 q 0.0423,-0.17992 0.0952,-0.4445 0.0635,-0.26459 0.13759,-0.55034 0.0741,-0.29633 0.14816,-0.52916 l 1.00542,-3.19617 h 1.016 l 0.97367,3.19617 q 0.11641,0.35983 0.22225,0.78316 0.11641,0.42334 0.15875,0.73025 h 0.0423 q 0.0318,-0.26458 0.13758,-0.73025 0.11642,-0.46566 0.24342,-0.9525 l 0.79375,-3.02683 h 0.9525 l -1.57692,5.67267 z"
           style="font-style:normal;font-variant:normal;font-weight:normal;font-stretch:normal;font-family:'Noto Sans';-inkscape-font-specification:'Noto Sans';stroke-width:0.26458332"
           id="path889" />
      </g>
      <path
         style="fill:none;stroke:#000000;stroke-width:0.5291667;stroke-linecap:butt;stroke-linejoin:miter;stroke-miterlimit:4;stroke-dasharray:none;stroke-opacity:1"
         d="M 38.648064,130.3125 H 105.57347"
         id="path10" />
      <path
         d="m 65.641866,130.02902 v -7.22879"
         style="fill:none;stroke:#0000be;stroke-width:0.79374999;stroke-linecap:butt;stroke-linejoin:miter;stroke-miterlimit:4;stroke-dasharray:none;stroke-opacity:1"
         id="path844" />
      <path
         d="M 59.720238,130.02902 V 117.19126"
         style="fill:none;stroke:#0000be;stroke-width:0.79374999;stroke-linecap:butt;stroke-linejoin:miter;stroke-miterlimit:4;stroke-dasharray:none;stroke-opacity:1"
         id="path846" />
      <path
         d="M 53.798611,130.02902 V 112.45706"
         style="fill:none;stroke:#0000be;stroke-width:0.79374999;stroke-linecap:butt;stroke-linejoin:miter;stroke-miterlimit:4;stroke-dasharray:none;stroke-opacity:1"
         id="path848" />
      <path
         d="M 47.876984,130.02902 V 110.0595"
         style="fill:none;stroke:#0000be;stroke-width:0.79374999;stroke-linecap:butt;stroke-linejoin:miter;stroke-miterlimit:4;stroke-dasharray:none;stroke-opacity:1"
         id="path850" />
      <path
         d="m 41.955357,130.02902 v -14.6035"
         style="fill:none;stroke:#0000be;stroke-width:0.79374999;stroke-linecap:butt;stroke-linejoin:miter;stroke-miterlimit:4;stroke-dasharray:none;stroke-opacity:1"
         id="path852" />
    </g>
  </g>
</svg>
